<?xml version="1.0" encoding="UTF-8"?>
<svg id="_图层_2" data-name="图层 2" xmlns="http://www.w3.org/2000/svg" xmlns:xlink="http://www.w3.org/1999/xlink" viewBox="0 0 548.64 561.63">
  <defs>
    <style>
      .cls-1 {
        opacity: .3;
      }

      .cls-2 {
        fill: url(#_未命名的渐变_29);
      }

      .cls-2, .cls-3 {
        stroke: #242424;
        stroke-miterlimit: 10;
      }

      .cls-4 {
        fill: #0098ff;
      }

      .cls-3 {
        fill: url(#_未命名的渐变_20);
      }
    </style>
    <linearGradient id="_未命名的渐变_20" data-name="未命名的渐变 20" x1="406.45" y1="409.58" x2="507.63" y2="181.3" gradientUnits="userSpaceOnUse">
      <stop offset=".18" stop-color="#fff"/>
      <stop offset=".2" stop-color="#f8f8f8"/>
      <stop offset=".43" stop-color="#a1a1a1"/>
      <stop offset=".63" stop-color="#5c5c5c"/>
      <stop offset=".8" stop-color="#2a2a2a"/>
      <stop offset=".93" stop-color="#0b0b0b"/>
      <stop offset="1" stop-color="#000"/>
    </linearGradient>
    <linearGradient id="_未命名的渐变_29" data-name="未命名的渐变 29" x1="175.65" y1="404.15" x2="304.12" y2="-179.05" gradientUnits="userSpaceOnUse">
      <stop offset="0" stop-color="#fff"/>
      <stop offset=".8" stop-color="#000"/>
    </linearGradient>
  </defs>
  <g id="_图层_1-2" data-name="图层 1">
    <g>
      <path class="cls-4" d="M437.95,129.82c-18.14-2.36-40.59,1.62-50.81,18.67-5.01,8.35-6.38,20.37-8.01,29.98-6.46,38.04-9.44,76.79-16.23,114.8-.56,6.79,4.14,16.24,11.04,18.04s29.05.74,37.57.51c22.23-.6,46.74-1.57,68.99-3,52.19-3.36,50.54-42.5,56.59-82.39,3.36-22.12,9.09-47.36,10.73-69.26,1.26-16.79-4.38-27.75-21.63-31.11-19.51,3.12-57.57-2.84-73.92,6.55-9,5.16-14.75,14.25-17.3,24.18,15.37-5.95,33.18-4.69,49.53-4.95,5.25-.08,8.64-2.68,14.37.54,5.5,3.09,5.31,8.26,4.95,13.79-1.75,26.86-8.37,63.82-13.03,90.95-2.04,11.86-2.36,25.52-17.42,27.58-11,1.5-26.44.62-37.95,1.05-4.35.16-26.14,2.81-28.02.11l-.45-4.53c7.7-38.52,8.96-80.61,17.31-118.72,2.53-11.55,7.15-22.96,13.7-32.78ZM449.95,335.79c19.67,16.36,30.22,40.13,35.7,64.78,2.16,9.72,2.81,29.11,7.86,36.14,9.83,13.69,27.51,8.23,36.43-3.44,20.94-27.39-11.27-72.7-35.98-87.01-13.22-7.65-28.77-11.03-44.01-10.47ZM426.46,337.78c-5.97.22-12.02,0-18,0-3.31,0-14.07,1.55-17.31,2.69-6.07,2.13-8.66,7.07-11.7,12.29-8.47,14.56-14.68,31.56-23.31,46.69-10.1,17.7-21.84,34.4-35.16,49.83,16.44-.71,32.78-11.19,45.46-21.53,19.98-16.27,35.2-36.93,47.69-59.3,3.88-6.95,13.35-22.95,13.85-30.16.22-3.14-1.05-.53-1.52-.51Z"/>
      <path class="cls-4" d="M349.96.83l-31,123.97c-8.03-6.15-14.76-14.57-22.51-20.97-2.43-2.01-5.89-5.5-8.92-5.06l-43.05,34.04-3.51,4.98,134.56-4.06c.83,14.33-6.42,28.56-22.95,25.01l-26.61,189.04c1.88,1.88,36.39-11.33,41.5-13,.75-.16.64.96.48,1.47-2.44,7.75-37.52,27.67-45.49,33.5-12.13,61.53-4.94,133.37-62.17,173.8-11.49,8.12-24.63,14.22-38.31,17.17,25.26-22.35,34.98-54.71,41.7-86.77l11.29-79.19c-1.17-1.22-18.8,8.57-21.63,9.85-51.87,23.37-136.44,64.64-192.82,61.13-42.51-2.65-64.75-31.44-59.38-73.36,6.52-50.88,44.24-105.92,75.89-145.08,49.31-61,107.07-114.55,166.44-165.52l.42-3.9c-11.99-4.18-24.36-7.59-36.15-12.34-1.9-.77-4.93-1.67-6.47-2.52-1.13-.63-1.7.07-1.28-2.22L349.96.83ZM308.97,160.8l-40.56,1.93-7.44,53.05,40.98-2.01,7.02-52.98ZM194.93,390.73l32.06-221.46c1.29-10.38-10.29-2.11-16.4-5.18-55.81,46.98-110.16,98.69-150.64,159.93-14.6,22.09-47.18,70.68-9.63,87.93,22.05,10.12,55.89,3.09,78.87-2.45,22.13-5.34,43.64-13.28,65.73-18.76ZM297.98,236.79l-39.06,1.45-7.95,51.55,39.54-1.96,7.46-51.04ZM286.98,311.79l-39.49,1.94-8.5,61.05,40.92-12.07,7.08-50.92Z"/>
    </g>
    <g class="cls-1">
      <path class="cls-3" d="M438.11,129.82c-18.14-2.36-40.59,1.62-50.81,18.67-5.01,8.35-6.38,20.37-8.01,29.98-6.46,38.04-9.44,76.79-16.23,114.8-.56,6.79,4.14,16.24,11.04,18.04s29.05.74,37.57.51c22.23-.6,46.74-1.57,68.99-3,52.19-3.36,50.54-42.5,56.59-82.39,3.36-22.12,9.09-47.36,10.73-69.26,1.26-16.79-4.38-27.75-21.63-31.11-19.51,3.12-57.57-2.84-73.92,6.55-9,5.16-14.75,14.25-17.3,24.18,15.37-5.95,33.18-4.69,49.53-4.95,5.25-.08,8.64-2.68,14.37.54,5.5,3.09,5.31,8.26,4.95,13.79-1.75,26.86-8.37,63.82-13.03,90.95-2.04,11.86-2.36,25.52-17.42,27.58-11,1.5-26.44.62-37.95,1.05-4.35.16-26.14,2.81-28.02.11l-.45-4.53c7.7-38.52,8.96-80.61,17.31-118.72,2.53-11.55,7.15-22.96,13.7-32.78ZM450.11,335.79c19.67,16.36,30.22,40.13,35.7,64.78,2.16,9.72,2.81,29.11,7.86,36.14,9.83,13.69,27.51,8.23,36.43-3.44,20.94-27.39-11.27-72.7-35.98-87.01-13.22-7.65-28.77-11.03-44.01-10.47ZM426.61,337.78c-5.97.22-12.02,0-18,0-3.31,0-14.07,1.55-17.31,2.69-6.07,2.13-8.66,7.07-11.7,12.29-8.47,14.56-14.68,31.56-23.31,46.69-10.1,17.7-21.84,34.4-35.16,49.83,16.44-.71,32.78-11.19,45.46-21.53,19.98-16.27,35.2-36.93,47.69-59.3,3.88-6.95,13.35-22.95,13.85-30.16.22-3.14-1.05-.53-1.52-.51Z"/>
      <path class="cls-2" d="M350.12.83l-31,123.97c-8.03-6.15-14.76-14.57-22.51-20.97-2.43-2.01-5.89-5.5-8.92-5.06l-43.05,34.04-3.51,4.98,134.56-4.06c.83,14.33-6.42,28.56-22.95,25.01l-26.61,189.04c1.88,1.88,36.39-11.33,41.5-13,.75-.16.64.96.48,1.47-2.44,7.75-37.52,27.67-45.49,33.5-12.13,61.53-4.94,133.37-62.17,173.8-11.49,8.12-24.63,14.22-38.31,17.17,25.26-22.35,34.98-54.71,41.7-86.77l11.29-79.19c-1.17-1.22-18.8,8.57-21.63,9.85-51.87,23.37-136.44,64.64-192.82,61.13-42.51-2.65-64.75-31.44-59.38-73.36,6.52-50.88,44.24-105.92,75.89-145.08,49.31-61,107.07-114.55,166.44-165.52l.42-3.9c-11.99-4.18-24.36-7.59-36.15-12.34-1.9-.77-4.93-1.67-6.47-2.52-1.13-.63-1.7.07-1.28-2.22L350.12.83ZM309.13,160.8l-40.56,1.93-7.44,53.05,40.98-2.01,7.02-52.98ZM195.09,390.73l32.06-221.46c1.29-10.38-10.29-2.11-16.4-5.18-55.81,46.98-110.16,98.69-150.64,159.93-14.6,22.09-47.18,70.68-9.63,87.93,22.05,10.12,55.89,3.09,78.87-2.45,22.13-5.34,43.64-13.28,65.73-18.76ZM298.13,236.79l-39.06,1.45-7.95,51.55,39.54-1.96,7.46-51.04ZM287.14,311.79l-39.49,1.94-8.5,61.05,40.92-12.07,7.08-50.92Z"/>
    </g>
  </g>
</svg>