<?xml version="1.0" encoding="UTF-8"?>
<svg id="_图层_2" data-name="图层 2" xmlns="http://www.w3.org/2000/svg" xmlns:xlink="http://www.w3.org/1999/xlink" viewBox="0 0 1644.66 562.62">
  <defs>
    <style>
      .cls-1 {
        fill: url(#_未命名的渐变);
      }

      .cls-1, .cls-2, .cls-3, .cls-4 {
        stroke: #242424;
        stroke-miterlimit: 10;
      }

      .cls-2 {
        fill: url(#_未命名的渐变_23);
      }

      .cls-5 {
        opacity: .3;
      }

      .cls-3 {
        fill: url(#_未命名的渐变_29);
      }

      .cls-6 {
        fill: #0098ff;
      }

      .cls-4 {
        fill: url(#_未命名的渐变_20);
      }
    </style>
    <linearGradient id="_未命名的渐变_20" data-name="未命名的渐变 20" x1="898.17" y1="520.23" x2="1140.69" y2="-26.97" gradientUnits="userSpaceOnUse">
      <stop offset=".18" stop-color="#fff"/>
      <stop offset=".2" stop-color="#f8f8f8"/>
      <stop offset=".43" stop-color="#a1a1a1"/>
      <stop offset=".63" stop-color="#5c5c5c"/>
      <stop offset=".8" stop-color="#2a2a2a"/>
      <stop offset=".93" stop-color="#0b0b0b"/>
      <stop offset="1" stop-color="#000"/>
    </linearGradient>
    <linearGradient id="_未命名的渐变_29" data-name="未命名的渐变 29" x1="175.65" y1="405.13" x2="304.12" y2="-178.07" gradientUnits="userSpaceOnUse">
      <stop offset="0" stop-color="#fff"/>
      <stop offset=".8" stop-color="#000"/>
    </linearGradient>
    <linearGradient id="_未命名的渐变_23" data-name="未命名的渐变 23" x1="1138.9" y1="435.52" x2="1352.63" y2="117.2" gradientUnits="userSpaceOnUse">
      <stop offset="0" stop-color="#fff"/>
      <stop offset=".89" stop-color="#000" stop-opacity=".58"/>
    </linearGradient>
    <linearGradient id="_未命名的渐变" data-name="未命名的渐变" x1="1381.09" y1="303.2" x2="1594.82" y2="-15.11" gradientUnits="userSpaceOnUse">
      <stop offset="0" stop-color="#fff"/>
      <stop offset="1" stop-color="#000"/>
    </linearGradient>
  </defs>
  <g id="_图层_1-2" data-name="图层 1">
    <g>
      <path class="cls-6" d="M1545.81,21.81c-12.07.18-16.18-7.09-17.49-18.02-1.37,9.35-7.22,17.82-17.5,18.02,1.4,2.59,5.18,2.23,7.9,3.59,6.98,3.47,8.08,9.18,8.6,16.41,1.04-6.23,3.13-12.64,8.58-16.43l9.92-3.57ZM1588.81,16.8c-2.65-.24-1.62-.05-1.98,1.5-2.55,10.92-3.93,21.63-11.01,31-9.08,12.01-27.82,15.6-41.99,17.51l21.53,3.96c10.64,3.79,19.07,7.43,23.65,18.34,3.73,8.89,5.54,20.1,5.82,29.69,3.44-3.84,3.06-10.97,4.48-16.01,7.81-27.73,20.88-33.11,48.5-37l-21.97-5.5c-20.25-5.69-25.2-24.75-27.02-43.48ZM1408.83,117.79c.11-12.82,11.63-37.15-8.46-39.03-10.32-.97-20.66,1.52-30.97,1l-5.57,40.03c-33.87,2.47-68.1,1.66-101.8,5.69-10.75,2.75-15.61,15.05-15.17,25.31l112.98-4.99-12.49,92.04-1.17,1.99-59.87,1.92c-18.14,2.7-36.76,1.18-54.94,3.05-16.15,1.66-22.28,13.21-24.51,27.97l105.95-3.5c-2.66,5.39-6.42,10.19-9.99,14.98-20.15,27.03-65.78,82.72-100.58,86.39-36.77,3.88-67.89-35.38-85.78-62.95-3.23-4.97-28.04-46.52-25.58-48.9l87.05-4.44c12.68-3.05,17.16-15.95,18.93-27.55l-129.98,5,7.94-59.56c19.13-1.63,38.39-1.39,57.55-2.45,7.16-.39,14.87-.36,21.99-1.01,16.65-1.51,24.06-13.07,24.52-28.98l-100,5c-1.52-1.54,4.72-34.2,4.99-39.51.39-7.57-1.01-12.47-9.46-13.51-4.19-.51-15.4.5-20.02,1.03-8.6.98-12.84-.24-15.21,8.79-1.65,6.32-5.15,43.28-7.24,44.75l-86.44,4.55c-14.65,1.79-20.98,13.09-21.61,26.89l104.99-4-8.12,59.89c-7.27,2.07-14.96.73-22.43,1.07-15.24.69-30.66,2.22-45.96,3.03-15.49.82-33.87-.36-49.01,1.98-12.68,1.96-21.14,15.9-21.47,28.02l97.99-3.99c1.25,1.23-6.62,13.32-7.98,15.51-24.66,39.89-56.38,76.49-91,107.98l-35.01,26.47c50.64-3.71,96.35-39.95,127.95-77.51,15.03-17.86,24.75-37.07,37.85-55.14.9-1.24,1.04-2.78,3.17-2.32l-21,155.98c28.3.65,48.32-21.04,52.86-47.63,4.2-24.55,5.86-50.92,9.26-75.73,1.86-13.55,4.58-27.08,6.39-40.63l2.95,2.05c15.9,66.98,72.32,150.48,152.04,123.96,42.43-14.12,82.76-53.79,108.89-89.09,3.02-4.08,8.48-15.3,10.86-17.63.64-.63,3.27-1.76,3.72-1.28l-22.99,164.97c32.2-9.08,48.71-33.04,54.7-64.78,5.92-31.42,7.94-64.79,12.42-96.57.31-2.19,1.93-15.61,3.37-15.61,5.15,6.75,6.61,16.01,10.03,23.95,19.51,45.29,56.4,88.07,103.47,105.5,51.58,19.1,109.94,3.37,140.97-42.47l-23.95,14.53c-75.15,35.23-140-22.47-181.44-79.62-4.33-5.97-18.13-25.17-20.13-30.87-.45-1.3-.68-2.63-.41-3.99,1.85-.14,3.61-.88,5.46-1.04,21.92-1.88,45.89-.6,68.02-1.97,11.01-.68,22.5-.2,30.92-8.07,6.16-5.76,7.36-12.88,8.53-20.96l-136.98,5.99,12.93-93.55,99.33-4.66c11.88-3.68,15.81-15.43,16.73-26.77l-112.99,4.99ZM868.9,103.79h-14.5c-26.12,0-34.94,24.69-38.35,45.64-6.93,42.59-12.03,86.19-18,128.98-9.76,69.97-10.68,146.35-53.32,205.65-27.82,38.69-70.64,65.11-117.8,72.69-.23,1.74,2.27.94,3.48.99,26.73,1.09,58.76-6.86,82.86-18.14,75.32-35.24,108.1-103.76,121.34-182.63l34.29-253.18ZM631.24,232.1c1.5-1.25,6.26-2.96,8.27-3.23,22.98-3.1,50.37-1.42,73.89-3.1,26.43-1.89,30.49-18.12,34.34-40.65,1.88-11.03,3.92-23.9,5.04-34.96,3.52-34.72-11.76-35.21-41.41-34.41-18.22.49-36.82,2.14-54.96,3.03-14.21.69-50.59-.71-61.17,5.82-5.78,3.56-10.4,12.59-8.87,19.26,1.08,1.54,20.54,1.06,24.1.97,18.21-.43,36.7-2.4,54.91-3.08,9.79-.37,26.16-2.01,35.06-.98,4.61.53,6.99,2.91,7.5,7.5.61,5.45-4.48,38.75-6.31,44.73-2.1,6.87-6.33,9.07-13.22,9.77-23.96,2.45-48.92.9-72.96,3.03-20.31,1.8-30.56,18.38-34.23,36.76-2.89,14.45-7.54,39.59-8.27,53.74-.52,10.21,6.89,20.09,17.58,20.39,20.99.6,45.52-3.47,66.86-3.95,8.94-.2,26.24-3.4,26.58,8.58.24,8.49-4.26,31.56-6.36,40.64-5.99,25.89-18.62,50.33-48.19,52.79-7.86.66-21.3,1.46-28.97,1-6.65-.4-13.99-2.57-20.5-3.98.57,12.66,11.9,26.17,24.58,27.91,19.42,2.66,48.89-1.82,66.76-10.05,43.79-20.17,57.06-71.05,60.51-115.47,2.25-28.98-13.58-28.96-37.41-28.41-17.78.42-36.1,2.7-53.91,3.08-5.59.12-21.44,2.12-21.59-5.49,3.67-11.5,3.49-43.81,12.36-51.23ZM437.95,130.8c-18.14-2.36-40.59,1.62-50.81,18.67-5.01,8.35-6.38,20.37-8.01,29.98-6.46,38.04-9.44,76.79-16.23,114.8-.56,6.79,4.14,16.24,11.04,18.04s29.05.74,37.57.51c22.23-.6,46.74-1.57,68.99-3,52.19-3.36,50.54-42.5,56.59-82.39,3.36-22.12,9.09-47.36,10.73-69.26,1.26-16.79-4.38-27.75-21.63-31.11-19.51,3.12-57.57-2.84-73.92,6.55-9,5.16-14.75,14.25-17.3,24.18,15.37-5.95,33.18-4.69,49.53-4.95,5.25-.08,8.64-2.68,14.37.54,5.5,3.09,5.31,8.26,4.95,13.79-1.75,26.86-8.37,63.82-13.03,90.95-2.04,11.86-2.36,25.52-17.42,27.58-11,1.5-26.44.62-37.95,1.05-4.35.16-26.14,2.81-28.02.11l-.45-4.53c7.7-38.52,8.96-80.61,17.31-118.72,2.53-11.55,7.15-22.96,13.7-32.78ZM1493.82,156.8c-10.45.94-31.01-1.29-39.5,4.98-6.51,4.81-9.83,19.93-13.32,27.68-5.84,12.98-13.22,24.19-23.17,34.31,40.46.73,66.79-30.43,75.99-66.97ZM1329.84,226.78c-7.61-7.99-11.99-18.36-14.51-28.99-1.7-7.17-2.08-21.59-5.07-26.93-6.07-10.85-29.59-4.14-39.91-5.07-1.07.07-2.11.51-2.42,1.62-.46,1.64,4.77,25.53,5.88,28.9,4.54,13.73,20.1,30.46,35.53,30.46h20.5ZM449.95,336.77c19.67,16.36,30.22,40.13,35.7,64.78,2.16,9.72,2.81,29.11,7.86,36.14,9.83,13.69,27.51,8.23,36.43-3.44,20.94-27.39-11.27-72.7-35.98-87.01-13.22-7.65-28.77-11.03-44.01-10.47ZM426.46,338.76c-5.97.22-12.02,0-18,0-3.31,0-14.07,1.55-17.31,2.69-6.07,2.13-8.66,7.07-11.7,12.29-8.47,14.56-14.68,31.56-23.31,46.69-10.1,17.7-21.84,34.4-35.16,49.83,16.44-.71,32.78-11.19,45.46-21.53,19.98-16.27,35.2-36.93,47.69-59.3,3.88-6.95,13.35-22.95,13.85-30.16.22-3.14-1.05-.53-1.52-.51Z"/>
      <path class="cls-6" d="M349.96,1.81l-31,123.97c-8.03-6.15-14.76-14.57-22.51-20.97-2.43-2.01-5.89-5.5-8.92-5.06l-43.05,34.04-3.51,4.98,134.56-4.06c.83,14.33-6.42,28.56-22.95,25.01l-26.61,189.04c1.88,1.88,36.39-11.33,41.5-13,.75-.16.64.96.48,1.47-2.44,7.75-37.52,27.67-45.49,33.5-12.13,61.53-4.94,133.37-62.17,173.8-11.49,8.12-24.63,14.22-38.31,17.17,25.26-22.35,34.98-54.71,41.7-86.77l11.29-79.19c-1.17-1.22-18.8,8.57-21.63,9.85-51.87,23.37-136.44,64.64-192.82,61.13-42.51-2.65-64.75-31.44-59.38-73.36,6.52-50.88,44.24-105.92,75.89-145.08,49.31-61,107.07-114.55,166.44-165.52l.42-3.9c-11.99-4.18-24.36-7.59-36.15-12.34-1.9-.77-4.93-1.67-6.47-2.52-1.13-.63-1.7.07-1.28-2.22L349.96,1.81ZM308.97,161.79l-40.56,1.93-7.44,53.05,40.98-2.01,7.02-52.98ZM194.93,391.71l32.06-221.46c1.29-10.38-10.29-2.11-16.4-5.18-55.81,46.98-110.16,98.69-150.64,159.93-14.6,22.09-47.18,70.68-9.63,87.93,22.05,10.12,55.89,3.09,78.87-2.45,22.13-5.34,43.64-13.28,65.73-18.76ZM297.98,237.77l-39.06,1.45-7.95,51.55,39.54-1.96,7.46-51.04ZM286.98,312.77l-39.49,1.94-8.5,61.05,40.92-12.07,7.08-50.92Z"/>
      <path class="cls-6" d="M1329.84,226.78h-20.5c-15.43,0-30.99-16.73-35.53-30.46-1.12-3.38-6.35-27.27-5.88-28.9.31-1.11,1.36-1.55,2.42-1.62,10.32.93,33.84-5.77,39.91,5.07,2.99,5.34,3.37,19.76,5.07,26.93,2.52,10.63,6.9,21,14.51,28.99Z"/>
      <path class="cls-6" d="M1493.82,156.8c-9.2,36.54-35.53,67.7-75.99,66.97,9.95-10.12,17.33-21.33,23.17-34.31,3.49-7.75,6.81-22.87,13.32-27.68,8.49-6.27,29.05-4.04,39.5-4.98Z"/>
    </g>
    <g class="cls-5">
      <path class="cls-4" d="M1545.97,21.81c-12.07.18-16.18-7.09-17.49-18.02-1.37,9.35-7.22,17.82-17.5,18.02,1.4,2.59,5.18,2.23,7.9,3.59,6.98,3.47,8.08,9.18,8.6,16.41,1.04-6.23,3.13-12.64,8.58-16.43l9.92-3.57ZM1588.96,16.8c-2.65-.24-1.62-.05-1.98,1.5-2.55,10.92-3.93,21.63-11.01,31-9.08,12.01-27.82,15.6-41.99,17.51l21.53,3.96c10.64,3.79,19.07,7.43,23.65,18.34,3.73,8.89,5.54,20.1,5.82,29.69,3.44-3.84,3.06-10.97,4.48-16.01,7.81-27.73,20.88-33.11,48.5-37l-21.97-5.5c-20.25-5.69-25.2-24.75-27.02-43.48ZM1408.99,117.79c.11-12.82,11.63-37.15-8.46-39.03-10.32-.97-20.66,1.52-30.97,1l-5.57,40.03c-33.87,2.47-68.1,1.66-101.8,5.69-10.75,2.75-15.61,15.05-15.17,25.31l112.98-4.99-12.49,92.04-1.17,1.99-59.87,1.92c-18.14,2.7-36.76,1.18-54.94,3.05-16.15,1.66-22.28,13.21-24.51,27.97l105.95-3.5c-2.66,5.39-6.42,10.19-9.99,14.98-20.15,27.03-65.78,82.72-100.58,86.39-36.77,3.88-67.89-35.38-85.78-62.95-3.23-4.97-28.04-46.52-25.58-48.9l87.05-4.44c12.68-3.05,17.16-15.95,18.93-27.55l-129.98,5,7.94-59.56c19.13-1.63,38.39-1.39,57.55-2.45,7.16-.39,14.87-.36,21.99-1.01,16.65-1.51,24.06-13.07,24.52-28.98l-100,5c-1.52-1.54,4.72-34.2,4.99-39.51.39-7.57-1.01-12.47-9.46-13.51-4.19-.51-15.4.5-20.02,1.03-8.6.98-12.84-.24-15.21,8.79-1.65,6.32-5.15,43.28-7.24,44.75l-86.44,4.55c-14.65,1.79-20.98,13.09-21.61,26.89l104.99-4-8.12,59.89c-7.27,2.07-14.96.73-22.43,1.07-15.24.69-30.66,2.22-45.96,3.03-15.49.82-33.87-.36-49.01,1.98-12.68,1.96-21.14,15.9-21.47,28.02l97.99-3.99c1.25,1.23-6.62,13.32-7.98,15.51-24.66,39.89-56.38,76.49-91,107.98l-35.01,26.47c50.64-3.71,96.35-39.95,127.95-77.51,15.03-17.86,24.75-37.07,37.85-55.14.9-1.24,1.04-2.78,3.17-2.32l-21,155.98c28.3.65,48.32-21.04,52.86-47.63,4.2-24.55,5.86-50.92,9.26-75.73,1.86-13.55,4.58-27.08,6.39-40.63l2.95,2.05c15.9,66.98,72.32,150.48,152.04,123.96,42.43-14.12,82.76-53.79,108.89-89.09,3.02-4.08,8.48-15.3,10.86-17.63.64-.63,3.27-1.76,3.72-1.28l-22.99,164.97c32.2-9.08,48.71-33.04,54.7-64.78,5.92-31.42,7.94-64.79,12.42-96.57.31-2.19,1.93-15.61,3.37-15.61,5.15,6.75,6.61,16.01,10.03,23.95,19.51,45.29,56.4,88.07,103.47,105.5,51.58,19.1,109.94,3.37,140.97-42.47l-23.95,14.53c-75.15,35.23-140-22.47-181.44-79.62-4.33-5.97-18.13-25.17-20.13-30.87-.45-1.3-.68-2.63-.41-3.99,1.85-.14,3.61-.88,5.46-1.04,21.92-1.88,45.89-.6,68.02-1.97,11.01-.68,22.5-.2,30.92-8.07,6.16-5.76,7.36-12.88,8.53-20.96l-136.98,5.99,12.93-93.55,99.33-4.66c11.88-3.68,15.81-15.43,16.73-26.77l-112.99,4.99ZM869.06,103.79h-14.5c-26.12,0-34.94,24.69-38.35,45.64-6.93,42.59-12.03,86.19-18,128.98-9.76,69.97-10.68,146.35-53.32,205.65-27.82,38.69-70.64,65.11-117.8,72.69-.23,1.74,2.27.94,3.48.99,26.73,1.09,58.76-6.86,82.86-18.14,75.32-35.24,108.1-103.76,121.34-182.63l34.29-253.18ZM631.4,232.1c1.5-1.25,6.26-2.96,8.27-3.23,22.98-3.1,50.37-1.42,73.89-3.1,26.43-1.89,30.49-18.12,34.34-40.65,1.88-11.03,3.92-23.9,5.04-34.96,3.52-34.72-11.76-35.21-41.41-34.41-18.22.49-36.82,2.14-54.96,3.03-14.21.69-50.59-.71-61.17,5.82-5.78,3.56-10.4,12.59-8.87,19.26,1.08,1.54,20.54,1.06,24.1.97,18.21-.43,36.7-2.4,54.91-3.08,9.79-.37,26.16-2.01,35.06-.98,4.61.53,6.99,2.91,7.5,7.5.61,5.45-4.48,38.75-6.31,44.73-2.1,6.87-6.33,9.07-13.22,9.77-23.96,2.45-48.92.9-72.96,3.03-20.31,1.8-30.56,18.38-34.23,36.76-2.89,14.45-7.54,39.59-8.27,53.74-.52,10.21,6.89,20.09,17.58,20.39,20.99.6,45.52-3.47,66.86-3.95,8.94-.2,26.24-3.4,26.58,8.58.24,8.49-4.26,31.56-6.36,40.64-5.99,25.89-18.62,50.33-48.19,52.79-7.86.66-21.3,1.46-28.97,1-6.65-.4-13.99-2.57-20.5-3.98.57,12.66,11.9,26.17,24.58,27.91,19.42,2.66,48.89-1.82,66.76-10.05,43.79-20.17,57.06-71.05,60.51-115.47,2.25-28.98-13.58-28.96-37.41-28.41-17.78.42-36.1,2.7-53.91,3.08-5.59.12-21.44,2.12-21.59-5.49,3.67-11.5,3.49-43.81,12.36-51.23ZM438.11,130.8c-18.14-2.36-40.59,1.62-50.81,18.67-5.01,8.35-6.38,20.37-8.01,29.98-6.46,38.04-9.44,76.79-16.23,114.8-.56,6.79,4.14,16.24,11.04,18.04s29.05.74,37.57.51c22.23-.6,46.74-1.57,68.99-3,52.19-3.36,50.54-42.5,56.59-82.39,3.36-22.12,9.09-47.36,10.73-69.26,1.26-16.79-4.38-27.75-21.63-31.11-19.51,3.12-57.57-2.84-73.92,6.55-9,5.16-14.75,14.25-17.3,24.18,15.37-5.95,33.18-4.69,49.53-4.95,5.25-.08,8.64-2.68,14.37.54,5.5,3.09,5.31,8.26,4.95,13.79-1.75,26.86-8.37,63.82-13.03,90.95-2.04,11.86-2.36,25.52-17.42,27.58-11,1.5-26.44.62-37.95,1.05-4.35.16-26.14,2.81-28.02.11l-.45-4.53c7.7-38.52,8.96-80.61,17.31-118.72,2.53-11.55,7.15-22.96,13.7-32.78ZM1493.98,156.8c-10.45.94-31.01-1.29-39.5,4.98-6.51,4.81-9.83,19.93-13.32,27.68-5.84,12.98-13.22,24.19-23.17,34.31,40.46.73,66.79-30.43,75.99-66.97ZM1330,226.78c-7.61-7.99-11.99-18.36-14.51-28.99-1.7-7.17-2.08-21.59-5.07-26.93-6.07-10.85-29.59-4.14-39.91-5.07-1.07.07-2.11.51-2.42,1.62-.46,1.64,4.77,25.53,5.88,28.9,4.54,13.73,20.1,30.46,35.53,30.46h20.5ZM450.11,336.77c19.67,16.36,30.22,40.13,35.7,64.78,2.16,9.72,2.81,29.11,7.86,36.14,9.83,13.69,27.51,8.23,36.43-3.44,20.94-27.39-11.27-72.7-35.98-87.01-13.22-7.65-28.77-11.03-44.01-10.47ZM426.61,338.76c-5.97.22-12.02,0-18,0-3.31,0-14.07,1.55-17.31,2.69-6.07,2.13-8.66,7.07-11.7,12.29-8.47,14.56-14.68,31.56-23.31,46.69-10.1,17.7-21.84,34.4-35.16,49.83,16.44-.71,32.78-11.19,45.46-21.53,19.98-16.27,35.2-36.93,47.69-59.3,3.88-6.95,13.35-22.95,13.85-30.16.22-3.14-1.05-.53-1.52-.51Z"/>
      <path class="cls-3" d="M350.12,1.81l-31,123.97c-8.03-6.15-14.76-14.57-22.51-20.97-2.43-2.01-5.89-5.5-8.92-5.06l-43.05,34.04-3.51,4.98,134.56-4.06c.83,14.33-6.42,28.56-22.95,25.01l-26.61,189.04c1.88,1.88,36.39-11.33,41.5-13,.75-.16.64.96.48,1.47-2.44,7.75-37.52,27.67-45.49,33.5-12.13,61.53-4.94,133.37-62.17,173.8-11.49,8.12-24.63,14.22-38.31,17.17,25.26-22.35,34.98-54.71,41.7-86.77l11.29-79.19c-1.17-1.22-18.8,8.57-21.63,9.85-51.87,23.37-136.44,64.64-192.82,61.13-42.51-2.65-64.75-31.44-59.38-73.36,6.52-50.88,44.24-105.92,75.89-145.08,49.31-61,107.07-114.55,166.44-165.52l.42-3.9c-11.99-4.18-24.36-7.59-36.15-12.34-1.9-.77-4.93-1.67-6.47-2.52-1.13-.63-1.7.07-1.28-2.22L350.12,1.81ZM309.13,161.79l-40.56,1.93-7.44,53.05,40.98-2.01,7.02-52.98ZM195.09,391.71l32.06-221.46c1.29-10.38-10.29-2.11-16.4-5.18-55.81,46.98-110.16,98.69-150.64,159.93-14.6,22.09-47.18,70.68-9.63,87.93,22.05,10.12,55.89,3.09,78.87-2.45,22.13-5.34,43.64-13.28,65.73-18.76ZM298.13,237.77l-39.06,1.45-7.95,51.55,39.54-1.96,7.46-51.04ZM287.14,312.77l-39.49,1.94-8.5,61.05,40.92-12.07,7.08-50.92Z"/>
      <path class="cls-2" d="M1330,226.78h-20.5c-15.43,0-30.99-16.73-35.53-30.46-1.12-3.38-6.35-27.27-5.88-28.9.31-1.11,1.36-1.55,2.42-1.62,10.32.93,33.84-5.77,39.91,5.07,2.99,5.34,3.37,19.76,5.07,26.93,2.52,10.63,6.9,21,14.51,28.99Z"/>
      <path class="cls-1" d="M1493.98,156.8c-9.2,36.54-35.53,67.7-75.99,66.97,9.95-10.12,17.33-21.33,23.17-34.31,3.49-7.75,6.81-22.87,13.32-27.68,8.49-6.27,29.05-4.04,39.5-4.98Z"/>
    </g>
  </g>
</svg>